<?xml version="1.0" encoding="UTF-8" standalone="no"?>
<svg
   xmlns:dc="http://purl.org/dc/elements/1.1/"
   xmlns:cc="http://creativecommons.org/ns#"
   xmlns:rdf="http://www.w3.org/1999/02/22-rdf-syntax-ns#"
   xmlns:svg="http://www.w3.org/2000/svg"
   xmlns="http://www.w3.org/2000/svg"
   xmlns:sodipodi="http://sodipodi.sourceforge.net/DTD/sodipodi-0.dtd"
   xmlns:inkscape="http://www.inkscape.org/namespaces/inkscape"
   width="134.82799"
   height="127.99984"
   viewBox="0 0 134.82799 127.99984"
   version="1.1"
   xml:space="preserve"
   style="clip-rule:evenodd;fill-rule:evenodd;stroke-linejoin:round;stroke-miterlimit:2"
   id="svg933"
   sodipodi:docname="teamspeak5.svg"
   inkscape:version="0.92.4 (5da689c313, 2019-01-14)"><metadata
   id="metadata937"><rdf:RDF><cc:Work
       rdf:about=""><dc:format>image/svg+xml</dc:format><dc:type
         rdf:resource="http://purl.org/dc/dcmitype/StillImage" /><dc:title></dc:title></cc:Work></rdf:RDF></metadata><sodipodi:namedview
   pagecolor="#ffffff"
   bordercolor="#666666"
   borderopacity="1"
   objecttolerance="10"
   gridtolerance="10"
   guidetolerance="10"
   inkscape:pageopacity="0"
   inkscape:pageshadow="2"
   inkscape:window-width="1920"
   inkscape:window-height="1017"
   id="namedview935"
   showgrid="false"
   fit-margin-top="0"
   fit-margin-left="0"
   fit-margin-right="0"
   fit-margin-bottom="0"
   inkscape:zoom="4.6283353"
   inkscape:cx="129.38691"
   inkscape:cy="58.442072"
   inkscape:window-x="-8"
   inkscape:window-y="-8"
   inkscape:window-maximized="1"
   inkscape:current-layer="g859" />
    <g
   inkscape:groupmode="layer"
   id="layer1"
   inkscape:label="Layer 1"
   transform="translate(-304.22424,-2.2088e-5)" /><g
   transform="matrix(0.91290361,0,0,0.91290361,-201.33205,5.5740881)"
   id="g859"
   inkscape:export-filename="C:\Users\rober\teamspeak.png"
   inkscape:export-xdpi="96"
   inkscape:export-ydpi="96">
        <g
   transform="translate(235.41,6.59305)"
   id="g817"
   style="display:inline">
            <circle
   cx="27.371"
   cy="59.999001"
   r="20.15"
   style="fill:#cccccc"
   id="circle815" />
        </g>
        <g
   transform="translate(235.41,6.59305)"
   id="g821"
   style="display:inline">
            <path
   d="m 27.371,39.849 c 11.121,0 20.15,9.029 20.15,20.15 0,11.121 -9.029,20.15 -20.15,20.15 -11.121,0 -20.15,-9.029 -20.15,-20.15 0,-11.121 9.029,-20.15 20.15,-20.15 z m 0,1.259 c 10.426,0 18.891,8.465 18.891,18.891 0,10.426 -8.465,18.89 -18.891,18.89 -10.426,0 -18.89,-8.464 -18.89,-18.89 0,-10.426 8.464,-18.891 18.89,-18.891 z"
   style="fill:#333333"
   id="path819"
   inkscape:connector-curvature="0" />
        </g>
        <g
   transform="translate(235.41,6.59305)"
   id="g825"
   style="display:inline">
            <circle
   cx="27.371"
   cy="59.999001"
   r="15.112"
   style="fill:#333333"
   id="circle823" />
        </g>
        <g
   transform="translate(235.41,6.59305)"
   id="g829"
   style="display:inline">
            <circle
   cx="27.371"
   cy="59.999001"
   r="13.853"
   style="fill:#cccccc"
   id="circle827" />
        </g>
        <g
   transform="translate(235.41,6.59305)"
   id="g833"
   style="display:inline">
            <circle
   cx="27.371"
   cy="59.999001"
   r="10.39"
   style="fill:#333333"
   id="circle831" />
        </g>
        <g
   transform="translate(235.41,6.59305)"
   id="g837"
   style="display:inline">
            <path
   d="m 51.492,23.136 c 0.563,0.346 1.068,0.719 1.496,1.116 5.34,4.957 7.981,9.823 9.462,16.589 1.308,5.978 1.936,8.873 -1.206,11.053 -4.241,2.943 4.531,15.518 6.242,19.157 -2.261,2.9 -5.209,2.837 -6.767,3.641 -0.864,0.445 -0.507,2.094 -0.367,3.364 0.137,1.243 1.282,2.025 0.654,2.988 -0.563,0.863 -2.69,0.925 -3.614,1.519 0.889,0.979 2.866,1.961 2.606,3.234 -0.2,0.983 -2.418,0.81 -3.272,3.048 -0.458,1.199 -0.222,3.423 -1.168,4.546 -1.432,1.698 -2.908,2.476 -5.028,2.671 -1.134,0.121 -2.281,0.002 -3.366,-0.351 -3.525,-1.159 -6.802,-2.826 -9.757,-4.903 1.211,0.203 2.528,0.393 3.916,0.547 4.024,0.447 6.046,0.061 7.978,-2.231 0.832,-0.987 0.624,-2.942 1.027,-3.997 0.751,-1.967 2.701,-1.815 2.877,-2.68 0.229,-1.119 -1.509,-1.982 -2.291,-2.844 0.812,-0.521 2.683,-0.576 3.178,-1.335 0.552,-0.847 -0.455,-1.534 -0.575,-2.628 -0.123,-1.116 -0.438,-2.566 0.322,-2.957 1.37,-0.707 3.962,-0.651 5.95,-3.201 -1.504,-3.2 -9.217,-14.257 -5.488,-16.845 2.763,-1.916 2.21,-4.462 1.06,-9.718 -1.302,-5.949 -3.625,-10.228 -8.32,-14.587 -4.1022,-3.808624 -2.515,-1.726 -4.189,-2.303 2.726,-1.3 5.624,-2.279 8.64,-2.893 z"
   style="fill:#333333"
   id="path835"
   inkscape:connector-curvature="0"
   sodipodi:nodetypes="ccccccccccccccccccccccccccscc" />
        </g>
        <g
   transform="translate(235.41,6.59305)"
   id="g841"
   style="display:inline">
            <path
   d="m 60,22.399 c 0.797,0.022 1.598,0.069 2.402,0.142 20.677,1.878 35.939,20.19 34.061,40.866 -1.732,19.072 -17.446,33.538 -36.102,34.194 0.267,-0.21 0.522,-0.437 0.763,-0.685 1.595,-1.641 1.899,-3.615 2.175,-5.63 0.144,-1.021 0.913,-1.098 1.569,-1.476 2.846,-1.642 1.638,-5.433 1.638,-5.433 0.831,-0.635 1.426,-1.565 1.606,-2.585 0.254,-1.439 -0.721,-2.673 -0.926,-4.326 0.396,-0.112 0.792,-0.226 1.183,-0.354 3.2,-1.049 7.584,-3.594 5.926,-7.034 -1.841,-3.819 -4.397,-7.427 -6.073,-11.395 -0.655,-1.55 -1.401,-3.115 -1.148,-4.546 3.119,-2.245 3.767,-5.891 3.318,-9.19 C 69.207,36.219 65.877,28.318 60,22.399 Z"
   style="display:inline;fill:#acacac"
   id="path839"
   inkscape:connector-curvature="0" />
        </g>
        <g
   transform="translate(235.41,6.59305)"
   id="g845"
   style="display:inline">
            <path
   d="m 68.669,27.944 c 5.063,1.898 9.705,4.789 13.444,8.653 7.124,7.364 11.362,18.068 9.307,28.046 -1.945,9.446 -10.145,17.317 -15.578,19.741 -2.601,1.161 -4.71,0.991 -4.696,0.675 0.014,-0.316 0.344,-0.979 1.973,-2.942 5.828,-7.028 9.26,-17.292 4.138,-25.307 -1.038,-1.626 -2.311,-3 -3.748,-4.172 1.153,-2.171 1.351,-4.726 1.027,-7.116 -0.868,-6.387 -2.779,-12.37 -5.867,-17.578 z"
   style="display:inline;fill:#b3b3b3"
   id="path843"
   inkscape:connector-curvature="0" />
        </g>
        <g
   transform="translate(235.41,6.59305)"
   id="g849"
   style="display:inline">
            <path
   d="m 58.106,8.281 c -18.303,9.986 -30.735,29.412 -30.735,51.718 0,3.532 0.312,6.992 0.909,10.35 -0.299,0.026 -0.602,0.04 -0.909,0.04 -5.734,0 -10.39,-4.656 -10.39,-10.39 0,-17.232 6.306,-33.002 16.736,-45.128 7.236,-4.065 15.544,-6.44 24.389,-6.59 z"
   style="fill:#666666"
   id="path847"
   inkscape:connector-curvature="0" />
        </g>
        <g
   transform="translate(235.41,6.59305)"
   id="g853"
   style="display:inline">
            <path
   d="M 33.716,14.871 C 41.196,10.669 49.82,8.273 59,8.273 c 28.551,0 51.731,23.18 51.731,51.732 0,27.647 -25.108,53.153 -62.438,44.99 l -0.085,-0.072 C 70.543,107.297 87.006,98.2 95.932,84.908 l 0.054,-0.081 c 4.773,-7.093 7.56,-15.635 7.56,-24.822 V 59.999 C 103.542,35.415 83.583,15.458 59,15.458 c -16.098,0 -30.213,8.557 -38.04,21.367 2.887,-8.122 7.247,-15.548 12.756,-21.954 z"
   style="fill:#acacac"
   id="path851"
   inkscape:connector-curvature="0" />
        </g>
        <g
   transform="translate(235.41,6.59305)"
   id="g857"
   style="display:inline">
            <path
   d="m 59,8.273 c 28.551,0 51.731,23.18 51.731,51.732 0,11.081 -4.033,21.818 -11.272,30.182 6.295,-8.422 10.024,-18.87 10.024,-30.182 C 109.483,32.142 86.862,9.521 59,9.521 c -10.201,0 -19.699,3.032 -27.638,8.241 0.759,-0.985 1.544,-1.949 2.354,-2.891 3.154,-1.771 6.511,-3.222 10.027,-4.308 l 0.015,-0.004 0.38,-0.116 0.005,-10e-4 0.391,-0.116 0.391,-0.112 0.012,-0.003 0.366,-0.102 0.039,-0.011 0.379,-0.102 C 45.853,9.962 45.986,9.927 46.119,9.892 L 46.494,9.798 46.549,9.784 46.888,9.701 46.934,9.69 47.32,9.599 47.705,9.512 47.76,9.5 48.086,9.429 48.161,9.413 48.509,9.34 48.539,9.333 48.932,9.254 48.962,9.248 49.307,9.181 49.395,9.165 49.701,9.108 49.782,9.094 50.164,9.026 50.546,8.962 50.633,8.948 50.93,8.9 51.033,8.884 51.35,8.836 51.414,8.826 51.799,8.771 51.865,8.762 52.18,8.72 52.291,8.705 52.576,8.669 52.68,8.656 53.062,8.611 53.444,8.569 53.552,8.557 53.833,8.529 53.953,8.517 54.254,8.489 54.338,8.481 54.721,8.448 54.806,8.441 55.107,8.418 55.231,8.409 55.508,8.39 55.623,8.382 56.008,8.358 56.394,8.338 56.511,8.332 56.788,8.32 56.915,8.315 57.214,8.304 57.306,8.3 57.692,8.289 57.784,8.287 58.084,8.281 58.212,8.279 58.49,8.276 58.61,8.275 Z"
   style="display:none;fill:#1f1f1f"
   id="path855"
   inkscape:connector-curvature="0" />
        </g>
    </g>
    <g
   transform="matrix(1.4817,0,0,1.4817,-437.51524,-31.651822)"
   id="g897"
   style="display:none">
        <g
   transform="matrix(2.20793,0,0,2.20794,-1012.3,-800.843)"
   id="g863">
            <path
   d="m 501.877,385.162 h 1.855 v 2.326 h -0.898 c -0.395,0.014 -0.65,0.082 -0.765,0.205 -0.115,0.122 -0.179,0.387 -0.192,0.795 v 12.617 h -0.001 c -0.749,0 -1.541,-0.115 -2.023,-0.605 -0.482,-0.491 -0.626,-1.461 -0.626,-1.997 v -17.825 h 2.65 z"
   style="fill:#2d3f6f"
   id="path861"
   inkscape:connector-curvature="0" />
        </g>
        <g
   transform="matrix(57.0248,0,0,57.025,101.798,84.2965)"
   id="g867">
            <path
   d="m 0.136,-0.264 v 0.141 c 0,0.019 0.003,0.032 0.008,0.037 0.005,0.006 0.016,0.009 0.035,0.009 0.018,0 0.03,-0.003 0.035,-0.009 0.005,-0.005 0.008,-0.018 0.008,-0.037 v -0.081 h 0.092 v 0.087 c 0,0.028 -0.002,0.05 -0.005,0.067 C 0.305,-0.033 0.298,-0.02 0.288,-0.011 0.278,-0.002 0.264,0.003 0.247,0.006 0.229,0.009 0.206,0.01 0.178,0.01 0.149,0.01 0.125,0.009 0.106,0.006 0.087,0.003 0.073,-0.003 0.063,-0.012 0.052,-0.021 0.045,-0.033 0.042,-0.05 0.038,-0.067 0.036,-0.089 0.036,-0.117 v -0.365 c 0,-0.028 0.002,-0.05 0.006,-0.067 0.003,-0.017 0.01,-0.03 0.021,-0.039 0.01,-0.008 0.024,-0.014 0.043,-0.017 0.019,-0.003 0.043,-0.004 0.072,-0.004 0.028,0 0.051,0.001 0.069,0.004 0.017,0.003 0.031,0.008 0.041,0.017 0.01,0.009 0.017,0.021 0.021,0.038 0.003,0.017 0.005,0.04 0.005,0.068 v 0.218 z m 0,-0.082 h 0.086 v -0.128 c 0,-0.019 -0.003,-0.032 -0.008,-0.037 -0.005,-0.005 -0.017,-0.008 -0.035,-0.008 -0.019,0 -0.03,0.003 -0.035,0.008 -0.005,0.005 -0.008,0.018 -0.008,0.037 z"
   style="fill:#2d3f6f;fill-rule:nonzero"
   id="path865"
   inkscape:connector-curvature="0" />
        </g>
        <g
   transform="matrix(57.0248,0,0,57.025,121.7,84.2965)"
   id="g871">
            <path
   d="M 0.172,0.01 C 0.144,0.01 0.121,0.009 0.104,0.007 0.086,0.004 0.072,-0.001 0.062,-0.009 0.052,-0.017 0.045,-0.029 0.042,-0.044 0.038,-0.059 0.036,-0.08 0.036,-0.106 v -0.145 c 0,-0.036 0.007,-0.062 0.021,-0.079 0.013,-0.017 0.037,-0.025 0.07,-0.025 h 0.019 c 0.023,0 0.039,0.001 0.048,0.002 0.009,0.002 0.016,0.004 0.021,0.007 V -0.47 c 0,-0.021 -0.003,-0.035 -0.008,-0.042 -0.005,-0.007 -0.017,-0.01 -0.034,-0.01 -0.019,0 -0.031,0.003 -0.036,0.01 -0.005,0.007 -0.008,0.021 -0.008,0.042 v 0.059 H 0.036 v -0.071 c 0,-0.028 0.002,-0.051 0.006,-0.068 0.003,-0.017 0.01,-0.029 0.02,-0.038 0.01,-0.009 0.024,-0.014 0.041,-0.017 0.017,-0.003 0.04,-0.004 0.068,-0.004 0.029,0 0.053,0.001 0.072,0.004 0.019,0.003 0.033,0.009 0.044,0.017 0.01,0.009 0.017,0.022 0.021,0.039 0.004,0.017 0.006,0.039 0.006,0.067 V 0 C 0.302,0.003 0.284,0.006 0.259,0.008 0.234,0.009 0.205,0.01 0.172,0.01 Z m 0.006,-0.084 c 0.019,0 0.032,-0.001 0.037,-0.002 V -0.272 C 0.21,-0.275 0.205,-0.276 0.198,-0.277 0.191,-0.278 0.184,-0.278 0.177,-0.278 c -0.011,0 -0.02,0.001 -0.026,0.002 -0.007,0.001 -0.012,0.004 -0.015,0.008 -0.003,0.004 -0.005,0.009 -0.006,0.016 -0.001,0.007 -0.001,0.016 -0.001,0.027 v 0.094 c 0,0.013 0,0.023 0.001,0.03 0.001,0.007 0.003,0.013 0.006,0.017 0.003,0.004 0.008,0.007 0.015,0.008 0.007,0.001 0.016,0.002 0.027,0.002 z"
   style="fill:#2d3f6f;fill-rule:nonzero"
   id="path869"
   inkscape:connector-curvature="0" />
        </g>
        <g
   transform="matrix(57.0248,0,0,57.025,141.829,84.2965)"
   id="g875">
            <path
   d="M 0.146,0 H 0.044 v -0.599 h 0.095 v 0.04 c 0.007,-0.015 0.019,-0.026 0.034,-0.034 0.015,-0.007 0.036,-0.011 0.063,-0.011 0.025,0 0.045,0.004 0.06,0.011 0.015,0.007 0.026,0.02 0.033,0.038 0.01,-0.019 0.023,-0.032 0.039,-0.039 0.016,-0.006 0.036,-0.01 0.061,-0.01 0.019,0 0.035,0.002 0.049,0.006 0.013,0.004 0.023,0.011 0.031,0.02 0.008,0.01 0.014,0.023 0.017,0.038 0.003,0.016 0.005,0.035 0.005,0.058 V 0 H 0.429 v -0.471 c 0,-0.015 -0.003,-0.026 -0.008,-0.032 -0.006,-0.006 -0.017,-0.009 -0.032,-0.009 -0.016,0 -0.027,0.003 -0.033,0.008 -0.007,0.005 -0.012,0.013 -0.017,0.022 V 0 H 0.237 v -0.471 c 0,-0.015 -0.003,-0.026 -0.008,-0.032 -0.006,-0.006 -0.017,-0.009 -0.032,-0.009 -0.017,0 -0.028,0.003 -0.035,0.008 -0.007,0.006 -0.012,0.014 -0.016,0.023 z"
   style="fill:#2d3f6f;fill-rule:nonzero"
   id="path873"
   inkscape:connector-curvature="0" />
        </g>
        <g
   transform="matrix(57.0248,0,0,57.025,174.448,84.2965)"
   id="g879">
            <path
   d="M 0.221,-0.426 V -0.471 C 0.221,-0.488 0.219,-0.5 0.214,-0.506 0.209,-0.511 0.196,-0.514 0.177,-0.514 c -0.019,0 -0.031,0.003 -0.036,0.008 -0.005,0.006 -0.007,0.018 -0.007,0.035 v 0.048 c 0,0.009 0.001,0.017 0.002,0.022 0.001,0.005 0.004,0.01 0.007,0.014 0.003,0.005 0.008,0.009 0.015,0.012 0.007,0.004 0.016,0.008 0.027,0.013 0.002,0.001 0.006,0.003 0.013,0.006 l 0.044,0.02 c 0.007,0.003 0.013,0.006 0.018,0.009 0.013,0.007 0.024,0.014 0.032,0.021 0.008,0.007 0.014,0.014 0.018,0.021 0.004,0.008 0.007,0.016 0.008,0.025 0.001,0.009 0.002,0.02 0.002,0.031 v 0.111 c 0,0.028 -0.002,0.05 -0.005,0.067 -0.004,0.017 -0.011,0.03 -0.021,0.039 C 0.283,-0.003 0.269,0.003 0.251,0.006 0.232,0.009 0.208,0.01 0.178,0.01 0.149,0.01 0.125,0.009 0.106,0.006 0.087,0.003 0.073,-0.003 0.062,-0.012 0.051,-0.021 0.044,-0.034 0.04,-0.051 0.036,-0.068 0.034,-0.09 0.034,-0.118 V -0.21 h 0.1 v 0.081 c 0,0.018 0.003,0.03 0.008,0.035 0.005,0.006 0.017,0.009 0.036,0.009 0.019,0 0.031,-0.003 0.036,-0.009 0.005,-0.006 0.007,-0.018 0.007,-0.035 v -0.073 c 0,-0.008 0,-0.015 -0.001,-0.02 C 0.219,-0.227 0.217,-0.232 0.214,-0.236 0.211,-0.24 0.206,-0.244 0.201,-0.248 0.196,-0.251 0.188,-0.255 0.179,-0.259 0.171,-0.263 0.164,-0.266 0.157,-0.269 0.15,-0.272 0.144,-0.274 0.138,-0.277 0.131,-0.279 0.125,-0.282 0.118,-0.285 0.111,-0.288 0.104,-0.291 0.096,-0.296 0.083,-0.303 0.073,-0.309 0.065,-0.316 0.057,-0.323 0.051,-0.33 0.046,-0.339 0.041,-0.347 0.038,-0.357 0.037,-0.368 0.035,-0.379 0.034,-0.392 0.034,-0.408 v -0.073 c 0,-0.028 0.002,-0.051 0.006,-0.068 0.004,-0.017 0.011,-0.03 0.022,-0.039 0.01,-0.008 0.024,-0.014 0.043,-0.017 0.019,-0.003 0.043,-0.004 0.073,-0.004 0.029,0 0.053,0.001 0.072,0.004 0.019,0.003 0.033,0.009 0.044,0.017 0.01,0.009 0.017,0.022 0.021,0.039 0.003,0.017 0.005,0.04 0.005,0.068 v 0.055 z"
   style="fill:#b7bdd2;fill-rule:nonzero"
   id="path877"
   inkscape:connector-curvature="0" />
        </g>
        <g
   transform="matrix(57.0248,0,0,57.025,194.634,84.2965)"
   id="g883">
            <path
   d="m 0.33,-0.117 c 0,0.023 -0.001,0.043 -0.004,0.058 C 0.323,-0.043 0.319,-0.03 0.312,-0.021 0.305,-0.012 0.295,-0.005 0.283,-0.001 0.271,0.003 0.256,0.005 0.237,0.005 0.215,0.005 0.197,0.002 0.182,-0.004 0.167,-0.01 0.155,-0.021 0.146,-0.036 V 0.153 H 0.044 v -0.752 h 0.095 v 0.044 c 0.009,-0.019 0.022,-0.032 0.038,-0.039 0.015,-0.007 0.034,-0.01 0.057,-0.01 0.019,0 0.035,0.002 0.048,0.006 0.013,0.004 0.023,0.011 0.03,0.02 0.007,0.01 0.011,0.023 0.014,0.038 0.003,0.016 0.004,0.035 0.004,0.058 z m -0.187,0 c 0.005,0.011 0.012,0.019 0.019,0.024 0.007,0.005 0.017,0.007 0.03,0.007 0.015,0 0.026,-0.004 0.031,-0.011 0.005,-0.006 0.008,-0.02 0.008,-0.039 v -0.326 c 0,-0.019 -0.003,-0.033 -0.008,-0.04 -0.005,-0.007 -0.016,-0.01 -0.031,-0.01 -0.013,0 -0.023,0.002 -0.03,0.007 -0.007,0.005 -0.014,0.013 -0.019,0.024 z"
   style="fill:#b7bdd2;fill-rule:nonzero"
   id="path881"
   inkscape:connector-curvature="0" />
        </g>
        <g
   transform="matrix(57.0248,0,0,57.025,215.505,84.2965)"
   id="g887">
            <path
   d="m 0.136,-0.264 v 0.141 c 0,0.019 0.003,0.032 0.008,0.037 0.005,0.006 0.016,0.009 0.035,0.009 0.018,0 0.03,-0.003 0.035,-0.009 0.005,-0.005 0.008,-0.018 0.008,-0.037 v -0.081 h 0.092 v 0.087 c 0,0.028 -0.002,0.05 -0.005,0.067 C 0.305,-0.033 0.298,-0.02 0.288,-0.011 0.278,-0.002 0.264,0.003 0.247,0.006 0.229,0.009 0.206,0.01 0.178,0.01 0.149,0.01 0.125,0.009 0.106,0.006 0.087,0.003 0.073,-0.003 0.063,-0.012 0.052,-0.021 0.045,-0.033 0.042,-0.05 0.038,-0.067 0.036,-0.089 0.036,-0.117 v -0.365 c 0,-0.028 0.002,-0.05 0.006,-0.067 0.003,-0.017 0.01,-0.03 0.021,-0.039 0.01,-0.008 0.024,-0.014 0.043,-0.017 0.019,-0.003 0.043,-0.004 0.072,-0.004 0.028,0 0.051,0.001 0.069,0.004 0.017,0.003 0.031,0.008 0.041,0.017 0.01,0.009 0.017,0.021 0.021,0.038 0.003,0.017 0.005,0.04 0.005,0.068 v 0.218 z m 0,-0.082 h 0.086 v -0.128 c 0,-0.019 -0.003,-0.032 -0.008,-0.037 -0.005,-0.005 -0.017,-0.008 -0.035,-0.008 -0.019,0 -0.03,0.003 -0.035,0.008 -0.005,0.005 -0.008,0.018 -0.008,0.037 z"
   style="fill:#b7bdd2;fill-rule:nonzero"
   id="path885"
   inkscape:connector-curvature="0" />
        </g>
        <g
   transform="matrix(57.0248,0,0,57.025,235.408,84.2965)"
   id="g891">
            <path
   d="M 0.172,0.01 C 0.144,0.01 0.121,0.009 0.104,0.007 0.086,0.004 0.072,-0.001 0.062,-0.009 0.052,-0.017 0.045,-0.029 0.042,-0.044 0.038,-0.059 0.036,-0.08 0.036,-0.106 v -0.145 c 0,-0.036 0.007,-0.062 0.021,-0.079 0.013,-0.017 0.037,-0.025 0.07,-0.025 h 0.019 c 0.023,0 0.039,0.001 0.048,0.002 0.009,0.002 0.016,0.004 0.021,0.007 V -0.47 c 0,-0.021 -0.003,-0.035 -0.008,-0.042 -0.005,-0.007 -0.017,-0.01 -0.034,-0.01 -0.019,0 -0.031,0.003 -0.036,0.01 -0.005,0.007 -0.008,0.021 -0.008,0.042 v 0.059 H 0.036 v -0.071 c 0,-0.028 0.002,-0.051 0.006,-0.068 0.003,-0.017 0.01,-0.029 0.02,-0.038 0.01,-0.009 0.024,-0.014 0.041,-0.017 0.017,-0.003 0.04,-0.004 0.068,-0.004 0.029,0 0.053,0.001 0.072,0.004 0.019,0.003 0.033,0.009 0.044,0.017 0.01,0.009 0.017,0.022 0.021,0.039 0.004,0.017 0.006,0.039 0.006,0.067 V 0 C 0.302,0.003 0.284,0.006 0.259,0.008 0.234,0.009 0.205,0.01 0.172,0.01 Z m 0.006,-0.084 c 0.019,0 0.032,-0.001 0.037,-0.002 V -0.272 C 0.21,-0.275 0.205,-0.276 0.198,-0.277 0.191,-0.278 0.184,-0.278 0.177,-0.278 c -0.011,0 -0.02,0.001 -0.026,0.002 -0.007,0.001 -0.012,0.004 -0.015,0.008 -0.003,0.004 -0.005,0.009 -0.006,0.016 -0.001,0.007 -0.001,0.016 -0.001,0.027 v 0.094 c 0,0.013 0,0.023 0.001,0.03 0.001,0.007 0.003,0.013 0.006,0.017 0.003,0.004 0.008,0.007 0.015,0.008 0.007,0.001 0.016,0.002 0.027,0.002 z"
   style="fill:#b7bdd2;fill-rule:nonzero"
   id="path889"
   inkscape:connector-curvature="0" />
        </g>
        <g
   transform="matrix(57.0248,0,0,57.025,255.536,84.2965)"
   id="g895">
            <path
   d="M 0.243,0 0.149,-0.308 H 0.145 V 0 H 0.044 v -0.79 h 0.101 v 0.412 H 0.149 L 0.233,-0.599 H 0.344 L 0.235,-0.349 0.357,0 Z"
   style="fill:#b7bdd2;fill-rule:nonzero"
   id="path893"
   inkscape:connector-curvature="0" />
        </g>
    </g>
    <defs
   id="defs931">
        <linearGradient
   id="_Linear1"
   x1="0"
   y1="0"
   x2="1"
   y2="0"
   gradientUnits="userSpaceOnUse"
   gradientTransform="matrix(0,-40.3,40.3,0,27.3713,80.1487)"><stop
     offset="0"
     style="stop-color:rgb(56,78,139);stop-opacity:1"
     id="stop899" /><stop
     offset="1"
     style="stop-color:rgb(38,53,93);stop-opacity:1"
     id="stop901" /></linearGradient>
        <linearGradient
   id="_Linear2"
   x1="0"
   y1="0"
   x2="1"
   y2="0"
   gradientUnits="userSpaceOnUse"
   gradientTransform="matrix(5.28351e-7,-40.3,40.3,5.28351e-7,27.3713,80.1487)"><stop
     offset="0"
     style="stop-color:rgb(72,100,178);stop-opacity:1"
     id="stop904" /><stop
     offset="1"
     style="stop-color:rgb(43,60,106);stop-opacity:1"
     id="stop906" /></linearGradient>
        <linearGradient
   id="_Linear3"
   x1="0"
   y1="0"
   x2="1"
   y2="0"
   gradientUnits="userSpaceOnUse"
   gradientTransform="matrix(0,-27.7062,27.7062,0,27.3713,73.8518)"><stop
     offset="0"
     style="stop-color:rgb(34,178,231);stop-opacity:1"
     id="stop909" /><stop
     offset="1"
     style="stop-color:rgb(23,122,158);stop-opacity:1"
     id="stop911" /></linearGradient>
        <linearGradient
   id="_Linear4"
   x1="0"
   y1="0"
   x2="1"
   y2="0"
   gradientUnits="userSpaceOnUse"
   gradientTransform="matrix(0,-72.4891,72.4891,0,53.9789,94.874)"><stop
     offset="0"
     style="stop-color:rgb(54,75,133);stop-opacity:1"
     id="stop914" /><stop
     offset="1"
     style="stop-color:rgb(41,57,101);stop-opacity:1"
     id="stop916" /></linearGradient>
        <linearGradient
   id="_Linear5"
   x1="0"
   y1="0"
   x2="1"
   y2="0"
   gradientUnits="userSpaceOnUse"
   gradientTransform="matrix(0,-54.5103,54.5103,0,74.6579,85.2923)"><stop
     offset="0"
     style="stop-color:rgb(167,177,205);stop-opacity:1"
     id="stop919" /><stop
     offset="0.46"
     style="stop-color:rgb(200,203,220);stop-opacity:1"
     id="stop921" /><stop
     offset="1"
     style="stop-color:rgb(209,210,224);stop-opacity:1"
     id="stop923" /></linearGradient>
        <linearGradient
   id="_Linear6"
   x1="0"
   y1="0"
   x2="1"
   y2="0"
   gradientUnits="userSpaceOnUse"
   gradientTransform="matrix(19.4796,-60.8492,60.8492,19.4796,28.28,70.3492)"><stop
     offset="0"
     style="stop-color:rgb(183,189,210);stop-opacity:1"
     id="stop926" /><stop
     offset="1"
     style="stop-color:rgb(96,123,182);stop-opacity:1"
     id="stop928" /></linearGradient>
    </defs>
</svg>